<?xml version="1.0" standalone="no"?>
<!DOCTYPE svg PUBLIC "-//W3C//DTD SVG 20010904//EN"
 "http://www.w3.org/TR/2001/REC-SVG-20010904/DTD/svg10.dtd">
<svg version="1.0" xmlns="http://www.w3.org/2000/svg"
 width="259.000000pt" height="142.000000pt" viewBox="0 0 259.000000 142.000000"
 preserveAspectRatio="xMidYMid meet">

<g transform="translate(0.000000,142.000000) scale(0.100000,-0.100000)"
fill="#ff0000" stroke="none">
<path d="M0 1365 c0 -47 3 -55 18 -55 16 0 23 -32 62 -285 24 -157 46 -285 50
-285 3 0 26 127 51 283 l45 282 142 3 142 3 1 -508 c1 -345 4 -489 11 -448 4
33 39 260 76 505 l67 445 146 3 147 3 10 -73 c6 -40 39 -263 74 -495 l63 -422
3 495 2 496 158 -4 c147 -4 161 -6 214 -31 35 -17 77 -50 109 -85 l51 -56 -5
39 c-4 22 -9 61 -13 88 l-6 47 110 0 c97 0 111 -2 116 -17 2 -10 24 -163 47
-340 24 -178 46 -319 50 -315 3 4 16 84 29 177 12 94 32 242 44 330 l22 160
277 3 277 2 0 55 0 55 -1295 0 -1295 0 0 -55z"/>
<path d="M2230 1140 c0 -6 -36 -236 -80 -512 -44 -275 -80 -505 -80 -509 0 -5
-58 -9 -128 -9 l-128 0 -17 93 c-9 50 -35 208 -59 350 l-42 258 -19 -57 c-21
-66 -39 -96 -83 -144 l-32 -35 67 -225 c38 -124 66 -228 64 -232 -2 -5 -51 -8
-107 -8 l-103 0 -43 163 c-24 89 -47 178 -52 198 -8 31 -13 35 -34 31 l-24 -4
0 -194 0 -194 -204 0 c-232 0 -208 -10 -221 95 -13 102 -6 95 -95 95 -57 0
-80 -4 -81 -12 0 -7 -6 -49 -12 -93 l-12 -80 -213 -3 -212 -2 -1 257 -1 258
-38 -225 c-22 -124 -42 -240 -45 -257 -6 -33 -6 -33 -65 -33 l-58 0 -12 73
c-7 39 -23 128 -35 197 l-23 125 -1 -252 -1 -253 1295 0 1295 0 0 55 0 55
-175 0 -175 0 -1 298 c0 163 0 397 1 520 0 122 -2 222 -5 222 -3 0 -5 -5 -5
-10z"/>
<path d="M1330 899 l0 -190 23 6 c131 38 163 283 45 355 -68 41 -68 42 -68
-171z"/>
<path d="M2455 1078 c-2 -7 -3 -67 -2 -133 l2 -120 68 -3 67 -3 0 136 0 135
-65 0 c-44 0 -67 -4 -70 -12z"/>
<path d="M807 920 c-9 -47 -47 -382 -47 -409 0 -19 6 -21 55 -21 38 0 55 4 54
13 0 6 -13 111 -28 232 -20 157 -30 210 -34 185z"/>
<path d="M2451 465 l-2 -135 70 0 71 0 0 135 0 135 -68 0 -69 0 -2 -135z"/>
</g>
</svg>
